<svg xmlns="http://www.w3.org/2000/svg" xmlns:xlink="http://www.w3.org/1999/xlink" width="500" zoomAndPan="magnify" viewBox="0 0 375 374.999991" height="500" preserveAspectRatio="xMidYMid meet" version="1.0"><defs><g/><clipPath id="d6396e9cc1"><path d="M 167 145.261719 L 238 145.261719 L 238 202 L 167 202 Z M 167 145.261719 " clip-rule="nonzero"/></clipPath><clipPath id="5becf983d8"><path d="M 137 145.261719 L 215 145.261719 L 215 230 L 137 230 Z M 137 145.261719 " clip-rule="nonzero"/></clipPath><clipPath id="67b2bca02e"><path d="M 124.234375 115.605469 L 250.757812 115.605469 L 250.757812 259.386719 L 124.234375 259.386719 Z M 124.234375 115.605469 " clip-rule="nonzero"/></clipPath></defs><g clip-path="url(#d6396e9cc1)"><path fill="#ffffff" d="M 217.453125 201.214844 L 230.414062 188.34375 C 240.117188 178.425781 240.117188 162.3125 230.398438 152.425781 C 225.925781 147.875 219.5 145.269531 212.769531 145.269531 C 212.769531 145.269531 212.761719 145.269531 212.761719 145.269531 C 206.035156 145.269531 199.625 147.882812 195.164062 152.425781 L 188.867188 158.832031 L 188.859375 158.832031 C 188.851562 158.835938 188.851562 158.84375 188.847656 158.851562 L 169.015625 178.363281 C 167.554688 179.835938 167.554688 182.257812 169.035156 183.738281 C 170.425781 185.144531 172.878906 185.183594 174.390625 183.71875 L 186.894531 171.558594 C 187.519531 170.953125 188.449219 170.925781 189.140625 171.398438 L 189.160156 171.371094 C 191.621094 173.0625 194.734375 173.566406 197.898438 172.789062 C 200.234375 172.210938 202.421875 170.996094 204.066406 169.34375 C 204.765625 168.644531 205.894531 168.636719 206.59375 169.335938 C 207.292969 170.035156 207.300781 171.167969 206.601562 171.867188 C 204.503906 173.972656 201.722656 175.53125 198.753906 176.265625 C 197.488281 176.574219 196.234375 176.726562 195 176.726562 C 194.832031 176.726562 194.667969 176.699219 194.496094 176.691406 L 215.613281 197.90625 C 216.550781 198.859375 217.144531 200.003906 217.453125 201.214844 " fill-opacity="1" fill-rule="nonzero"/></g><g clip-path="url(#5becf983d8)"><path fill="#ffffff" d="M 192.417969 189.960938 L 207.820312 205.367188 C 207.894531 205.421875 207.972656 205.484375 208.023438 205.535156 C 209.371094 206.890625 211.71875 206.890625 213.074219 205.535156 C 214.472656 204.128906 214.472656 201.84375 213.074219 200.4375 L 188.125 175.363281 L 176.886719 186.28125 C 175.460938 187.667969 173.621094 188.429688 171.699219 188.429688 C 169.753906 188.429688 167.859375 187.640625 166.496094 186.261719 C 163.632812 183.386719 163.632812 178.703125 166.496094 175.824219 L 185.0625 157.550781 L 180.03125 152.425781 C 175.558594 147.875 169.132812 145.261719 162.40625 145.261719 C 162.402344 145.261719 162.402344 145.261719 162.394531 145.261719 C 155.675781 145.269531 149.257812 147.875 144.792969 152.425781 C 135.054688 162.320312 135.054688 178.433594 144.792969 188.351562 L 185.0625 228.324219 C 186.414062 229.671875 188.769531 229.671875 190.113281 228.324219 C 191.511719 226.90625 191.515625 224.605469 190.113281 223.199219 C 190.113281 223.199219 190.113281 223.191406 190.105469 223.191406 L 174.605469 207.695312 C 173.90625 206.996094 173.90625 205.863281 174.605469 205.164062 C 175.304688 204.464844 176.4375 204.464844 177.136719 205.164062 L 192.613281 220.640625 C 192.671875 220.683594 192.710938 220.726562 192.738281 220.753906 C 194.089844 222.101562 196.445312 222.101562 197.792969 220.753906 C 199.179688 219.339844 199.179688 217.042969 197.789062 215.628906 C 197.753906 215.585938 197.730469 215.546875 197.695312 215.503906 L 182.28125 200.089844 C 181.589844 199.390625 181.589844 198.257812 182.28125 197.558594 C 182.980469 196.859375 184.113281 196.859375 184.820312 197.558594 L 200.332031 213.078125 C 200.347656 213.089844 200.351562 213.105469 200.359375 213.121094 C 201.710938 214.453125 204.050781 214.453125 205.398438 213.105469 C 206.796875 211.699219 206.796875 209.414062 205.398438 208.003906 L 189.882812 192.492188 C 189.1875 191.792969 189.1875 190.660156 189.882812 189.960938 C 190.578125 189.261719 191.710938 189.261719 192.417969 189.960938 " fill-opacity="1" fill-rule="nonzero"/></g><g clip-path="url(#67b2bca02e)"><path fill="#ffffff" d="M 187.496094 120.839844 C 187.113281 120.839844 186.726562 120.941406 186.382812 121.136719 L 130.582031 153.355469 C 129.894531 153.75 129.46875 154.488281 129.46875 155.28125 L 129.46875 219.714844 C 129.46875 220.507812 129.894531 221.246094 130.582031 221.640625 L 186.382812 253.855469 C 187.070312 254.253906 187.921875 254.253906 188.609375 253.855469 L 244.410156 221.640625 C 245.09375 221.246094 245.523438 220.507812 245.523438 219.714844 L 245.523438 155.28125 C 245.523438 154.488281 245.09375 153.75 244.410156 153.355469 L 188.609375 121.136719 C 188.265625 120.941406 187.878906 120.839844 187.496094 120.839844 Z M 187.496094 259.386719 C 186.207031 259.386719 184.917969 259.054688 183.765625 258.390625 L 127.964844 226.175781 C 125.664062 224.847656 124.234375 222.371094 124.234375 219.714844 L 124.234375 155.28125 C 124.234375 152.625 125.664062 150.148438 127.964844 148.820312 L 183.765625 116.605469 C 186.066406 115.273438 188.925781 115.273438 191.226562 116.605469 L 247.027344 148.820312 C 249.328125 150.148438 250.757812 152.625 250.757812 155.28125 L 250.757812 219.714844 C 250.757812 222.371094 249.328125 224.847656 247.027344 226.175781 L 191.226562 258.390625 C 190.074219 259.054688 188.785156 259.386719 187.496094 259.386719 " fill-opacity="1" fill-rule="nonzero"/></g><path fill="#ffffff" d="M 353.402344 108.320312 L 356.480469 106.515625 L 338.914062 76.546875 L 317.714844 88.976562 L 319.519531 92.058594 L 322.414062 89.96875 C 315.441406 80.3125 307.597656 71.601562 299.042969 63.867188 L 296.652344 66.511719 L 299.515625 68.640625 L 314.140625 48.941406 L 283.363281 26.109375 L 268.742188 45.832031 L 271.609375 47.957031 L 273.449219 44.898438 C 264.304688 39.394531 254.699219 34.8125 244.746094 31.167969 L 243.519531 34.523438 L 246.972656 35.421875 L 253.167969 11.65625 L 216.09375 1.980469 L 209.90625 25.765625 L 213.359375 26.660156 L 213.929688 23.140625 C 205.195312 21.730469 196.332031 21.015625 187.433594 21.015625 C 184.605469 21.015625 181.78125 21.085938 178.957031 21.230469 L 179.136719 24.792969 L 182.667969 24.269531 L 179.054688 -0.0234375 L 141.164062 5.601562 L 144.761719 29.882812 L 148.292969 29.363281 L 147.433594 25.894531 C 137.265625 28.421875 127.214844 31.941406 117.429688 36.492188 L 118.933594 39.730469 L 122.015625 37.921875 L 109.585938 16.730469 L 76.542969 36.097656 L 88.976562 57.296875 L 92.054688 55.488281 L 89.96875 52.59375 C 80.320312 59.554688 71.59375 67.410156 63.867188 75.96875 L 66.515625 78.359375 L 68.644531 75.496094 L 48.933594 60.863281 L 26.121094 91.640625 L 45.816406 106.269531 L 47.945312 103.402344 L 44.890625 101.566406 C 39.398438 110.695312 34.8125 120.320312 31.183594 130.265625 L 34.535156 131.492188 L 35.4375 128.035156 L 11.652344 121.824219 L 1.96875 158.90625 L 25.753906 165.117188 L 26.65625 161.664062 L 23.132812 161.089844 C 21.71875 169.847656 21.011719 178.730469 21.011719 187.65625 C 21.011719 190.449219 21.082031 193.25 21.21875 196.046875 L 24.785156 195.871094 L 24.265625 192.339844 L -0.0273438 195.9375 L 5.605469 233.835938 L 29.882812 230.242188 L 29.355469 226.714844 L 25.894531 227.570312 C 28.417969 237.746094 31.9375 247.792969 36.496094 257.578125 L 39.734375 256.074219 L 37.925781 252.992188 L 16.714844 265.425781 L 36.085938 298.460938 L 57.296875 286.035156 L 55.492188 282.957031 L 52.597656 285.046875 C 59.558594 294.6875 67.410156 303.414062 75.96875 311.140625 L 78.363281 308.492188 L 75.496094 306.363281 L 60.863281 326.070312 L 91.636719 348.894531 L 106.257812 329.183594 L 103.394531 327.058594 L 101.554688 330.113281 C 110.699219 335.609375 120.316406 340.195312 130.269531 343.828125 L 131.492188 340.480469 L 128.039062 339.574219 L 121.820312 363.363281 L 158.90625 373.019531 L 165.109375 349.242188 L 161.65625 348.34375 L 161.089844 351.871094 C 169.828125 353.277344 178.691406 353.992188 187.597656 353.992188 C 190.414062 353.992188 193.230469 353.921875 196.058594 353.777344 L 195.875 350.214844 L 192.34375 350.734375 L 195.9375 375.023438 L 233.839844 369.402344 L 230.238281 345.117188 L 226.710938 345.640625 L 227.566406 349.109375 C 237.738281 346.589844 247.78125 343.066406 257.574219 338.511719 L 256.070312 335.277344 L 252.988281 337.082031 L 265.414062 358.277344 L 298.457031 338.914062 L 286.035156 317.710938 L 282.953125 319.515625 L 285.046875 322.40625 C 294.691406 315.441406 303.402344 307.597656 311.136719 299.039062 L 308.484375 296.648438 L 306.359375 299.515625 L 326.078125 314.136719 L 348.894531 283.359375 L 329.171875 268.742188 L 327.046875 271.609375 L 330.105469 273.449219 C 335.609375 264.308594 340.195312 254.6875 343.839844 244.742188 L 340.488281 243.515625 L 339.585938 246.96875 L 363.359375 253.167969 L 373.023438 216.105469 L 349.242188 209.902344 L 348.34375 213.355469 L 351.863281 213.925781 C 353.277344 205.179688 353.996094 196.3125 353.996094 187.402344 C 353.996094 184.59375 353.921875 181.773438 353.777344 178.957031 L 350.214844 179.136719 L 350.738281 182.664062 L 375.027344 179.0625 L 369.414062 141.167969 L 345.121094 144.761719 L 345.644531 148.289062 L 349.109375 147.429688 C 346.585938 137.273438 343.066406 127.222656 338.515625 117.433594 L 335.28125 118.941406 L 337.085938 122.019531 L 358.28125 109.59375 L 356.480469 106.515625 L 353.402344 108.320312 L 351.59375 105.242188 L 330.675781 117.503906 L 332.042969 120.445312 C 336.402344 129.808594 339.765625 139.429688 342.179688 149.152344 L 342.960938 152.292969 L 363.394531 149.273438 L 366.921875 173.046875 L 346.488281 176.082031 L 346.648438 179.316406 C 346.789062 182.011719 346.859375 184.714844 346.859375 187.402344 C 346.859375 195.925781 346.171875 204.414062 344.820312 212.789062 L 344.296875 215.988281 L 364.316406 221.214844 L 358.25 244.460938 L 338.246094 239.246094 L 337.132812 242.289062 C 333.648438 251.8125 329.261719 261.019531 323.988281 269.769531 L 322.316406 272.546875 L 338.90625 284.84375 L 324.59375 304.148438 L 308.007812 291.847656 L 305.835938 294.257812 C 298.4375 302.445312 290.105469 309.949219 280.867188 316.617188 L 278.230469 318.519531 L 288.6875 336.359375 L 267.960938 348.515625 L 257.503906 330.671875 L 254.5625 332.039062 C 245.183594 336.402344 235.582031 339.773438 225.851562 342.175781 L 222.699219 342.957031 L 225.730469 363.390625 L 201.957031 366.914062 L 198.929688 346.484375 L 195.691406 346.648438 C 192.992188 346.785156 190.292969 346.855469 187.597656 346.855469 C 179.078125 346.855469 170.59375 346.167969 162.226562 344.820312 L 159.023438 344.304688 L 153.800781 364.316406 L 130.535156 358.253906 L 135.769531 338.238281 L 132.71875 337.125 C 123.191406 333.648438 113.984375 329.253906 105.230469 324 L 102.457031 322.332031 L 90.160156 338.90625 L 70.851562 324.59375 L 83.160156 308.011719 L 80.753906 305.835938 C 72.5625 298.453125 65.054688 290.101562 58.390625 280.867188 L 56.488281 278.238281 L 38.636719 288.699219 L 26.484375 267.96875 L 44.339844 257.507812 L 42.964844 254.5625 C 38.601562 245.199219 35.234375 235.589844 32.824219 225.855469 L 32.042969 222.710938 L 11.613281 225.730469 L 8.082031 201.949219 L 28.511719 198.925781 L 28.347656 195.691406 C 28.21875 193.011719 28.148438 190.332031 28.148438 187.65625 C 28.148438 179.109375 28.828125 170.605469 30.179688 162.234375 L 30.695312 159.027344 L 10.679688 153.804688 L 16.753906 130.535156 L 36.773438 135.761719 L 37.886719 132.714844 C 41.363281 123.191406 45.753906 113.980469 51.003906 105.242188 L 52.671875 102.46875 L 36.101562 90.160156 L 50.410156 70.851562 L 66.992188 83.160156 L 69.167969 80.753906 C 76.550781 72.566406 84.90625 65.054688 94.144531 58.382812 L 96.777344 56.484375 L 86.308594 38.644531 L 107.039062 26.496094 L 117.5 44.332031 L 120.441406 42.964844 C 129.804688 38.609375 139.421875 35.242188 149.152344 32.824219 L 152.296875 32.042969 L 149.273438 11.613281 L 173.042969 8.085938 L 176.082031 28.527344 L 179.316406 28.359375 C 182.023438 28.222656 184.726562 28.152344 187.433594 28.152344 C 195.945312 28.152344 204.433594 28.835938 212.792969 30.1875 L 215.996094 30.703125 L 221.203125 10.6875 L 244.460938 16.757812 L 239.246094 36.761719 L 242.292969 37.875 C 251.820312 41.363281 261.011719 45.75 269.765625 51.015625 L 272.542969 52.6875 L 284.84375 36.097656 L 304.148438 50.417969 L 291.851562 66.988281 L 294.257812 69.160156 C 302.445312 76.566406 309.949219 84.898438 316.628906 94.144531 L 318.523438 96.777344 L 336.367188 86.316406 L 350.320312 110.125 L 353.402344 108.320312 L 351.59375 105.242188 L 353.402344 108.320312 " fill-opacity="1" fill-rule="nonzero"/><path fill="#ffffff" d="M 321.339844 187.496094 L 317.773438 187.496094 C 317.773438 223.484375 303.199219 256.027344 279.617188 279.617188 C 256.03125 303.199219 223.484375 317.773438 187.5 317.773438 C 151.515625 317.773438 118.972656 303.199219 95.386719 279.617188 C 71.804688 256.027344 57.230469 223.484375 57.230469 187.496094 C 57.230469 151.511719 71.804688 118.96875 95.386719 95.382812 C 118.972656 71.804688 151.515625 57.230469 187.5 57.226562 C 223.484375 57.230469 256.03125 71.804688 279.617188 95.382812 C 303.199219 118.96875 317.773438 151.511719 317.773438 187.496094 L 324.910156 187.496094 C 324.910156 149.566406 309.523438 115.1875 284.664062 90.335938 C 259.808594 65.476562 225.433594 50.089844 187.5 50.089844 C 149.570312 50.089844 115.195312 65.476562 90.339844 90.335938 C 65.476562 115.1875 50.089844 149.566406 50.09375 187.496094 C 50.089844 225.433594 65.476562 259.808594 90.339844 284.664062 C 115.195312 309.523438 149.570312 324.910156 187.5 324.910156 C 225.433594 324.910156 259.808594 309.523438 284.664062 284.664062 C 309.523438 259.808594 324.910156 225.433594 324.910156 187.496094 L 321.339844 187.496094 " fill-opacity="1" fill-rule="nonzero"/><g fill="#ffffff" fill-opacity="1"><g transform="translate(91.860949, 159.180533)"><g><path d="M -3.9375 -28.140625 L -13.15625 -33.65625 L -10.265625 -38.5 L 14.25 -23.859375 L 11.359375 -19.015625 L 0.1875 -25.6875 L -6.375 -14.703125 L 4.796875 -8.03125 L 1.90625 -3.1875 L -22.609375 -17.828125 L -19.71875 -22.671875 L -10.5 -17.15625 Z M -3.9375 -28.140625 "/></g></g></g><g fill="#ffffff" fill-opacity="1"><g transform="translate(106.325189, 135.099179)"><g><path d="M 8.015625 -21.90625 L -1.65625 -11.984375 C -0.195312 -10.796875 1.148438 -10.226562 2.390625 -10.28125 C 3.640625 -10.34375 4.816406 -10.941406 5.921875 -12.078125 C 6.773438 -12.953125 7.304688 -13.820312 7.515625 -14.6875 C 7.722656 -15.5625 7.660156 -16.5 7.328125 -17.5 L 7.609375 -17.78125 L 11.75 -18.765625 C 12.351562 -17.203125 12.492188 -15.585938 12.171875 -13.921875 C 11.847656 -12.253906 10.863281 -10.570312 9.21875 -8.875 C 7.65625 -7.28125 6.003906 -6.195312 4.265625 -5.625 C 2.535156 -5.050781 0.765625 -5.035156 -1.046875 -5.578125 C -2.859375 -6.117188 -4.628906 -7.226562 -6.359375 -8.90625 C -8.109375 -10.613281 -9.265625 -12.378906 -9.828125 -14.203125 C -10.390625 -16.035156 -10.414062 -17.804688 -9.90625 -19.515625 C -9.394531 -21.222656 -8.453125 -22.78125 -7.078125 -24.1875 C -4.953125 -26.363281 -2.742188 -27.46875 -0.453125 -27.5 C 1.828125 -27.539062 4.085938 -26.472656 6.328125 -24.296875 C 7.140625 -23.503906 7.742188 -22.863281 8.140625 -22.375 Z M 2.265625 -21.03125 C 1.054688 -22.132812 -0.0625 -22.691406 -1.09375 -22.703125 C -2.125 -22.722656 -3.117188 -22.242188 -4.078125 -21.265625 C -5.984375 -19.304688 -5.976562 -17.0625 -4.0625 -14.53125 Z M 2.265625 -21.03125 "/></g></g></g><g fill="#ffffff" fill-opacity="1"><g transform="translate(120.490619, 120.201078)"><g><path d="M 7.15625 -4.4375 C 6.019531 -3.644531 4.890625 -3.171875 3.765625 -3.015625 C 2.640625 -2.859375 1.570312 -3.023438 0.5625 -3.515625 C -0.4375 -4.015625 -1.332031 -4.835938 -2.125 -5.984375 C -2.84375 -7.023438 -3.222656 -8.054688 -3.265625 -9.078125 C -3.304688 -10.109375 -3.007812 -11.175781 -2.375 -12.28125 C -1.75 -13.394531 -0.753906 -14.597656 0.609375 -15.890625 C 1.546875 -16.785156 2.21875 -17.523438 2.625 -18.109375 C 3.039062 -18.703125 3.253906 -19.191406 3.265625 -19.578125 C 3.285156 -19.960938 3.160156 -20.351562 2.890625 -20.75 C 2.503906 -21.3125 2.007812 -21.609375 1.40625 -21.640625 C 0.800781 -21.671875 0.0351562 -21.367188 -0.890625 -20.734375 C -1.878906 -20.054688 -2.664062 -19.191406 -3.25 -18.140625 C -3.832031 -17.097656 -4.207031 -15.988281 -4.375 -14.8125 L -4.6875 -14.59375 L -8.5 -16.125 C -8.28125 -17.738281 -7.710938 -19.269531 -6.796875 -20.71875 C -5.890625 -22.175781 -4.664062 -23.429688 -3.125 -24.484375 C -0.78125 -26.097656 1.257812 -26.769531 3 -26.5 C 4.738281 -26.226562 6.238281 -25.171875 7.5 -23.328125 L 12.796875 -15.625 C 13.335938 -14.832031 13.957031 -14.675781 14.65625 -15.15625 C 14.925781 -15.34375 15.160156 -15.570312 15.359375 -15.84375 L 15.625 -15.921875 L 18.0625 -13.046875 C 17.9375 -12.722656 17.6875 -12.351562 17.3125 -11.9375 C 16.945312 -11.53125 16.503906 -11.148438 15.984375 -10.796875 C 14.921875 -10.066406 13.945312 -9.695312 13.0625 -9.6875 C 12.1875 -9.6875 11.328125 -10.03125 10.484375 -10.71875 L 10.109375 -10.53125 C 10.515625 -8.09375 9.53125 -6.0625 7.15625 -4.4375 Z M 6.28125 -8.734375 C 7.3125 -9.441406 7.894531 -10.351562 8.03125 -11.46875 C 8.175781 -12.582031 7.820312 -13.753906 6.96875 -14.984375 L 5.734375 -16.796875 L 5.390625 -16.65625 C 5.265625 -16.25 5.035156 -15.820312 4.703125 -15.375 C 4.367188 -14.9375 3.84375 -14.367188 3.125 -13.671875 C 2.269531 -12.835938 1.765625 -12.078125 1.609375 -11.390625 C 1.453125 -10.710938 1.625 -10.015625 2.125 -9.296875 C 2.644531 -8.535156 3.265625 -8.113281 3.984375 -8.03125 C 4.710938 -7.945312 5.476562 -8.179688 6.28125 -8.734375 Z M 6.28125 -8.734375 "/></g></g></g><g fill="#ffffff" fill-opacity="1"><g transform="translate(137.495093, 108.782334)"><g><path d="M 8.21875 -3.5625 C 6.46875 -2.707031 4.90625 -2.523438 3.53125 -3.015625 C 2.15625 -3.503906 1.003906 -4.710938 0.078125 -6.640625 L -10.53125 -28.453125 L -5.671875 -30.8125 L 4.84375 -9.1875 C 5.414062 -8.007812 6.191406 -7.660156 7.171875 -8.140625 C 7.453125 -8.273438 7.726562 -8.46875 8 -8.71875 L 8.296875 -8.78125 L 10.546875 -5.234375 C 10.347656 -4.960938 10.046875 -4.675781 9.640625 -4.375 C 9.234375 -4.082031 8.757812 -3.8125 8.21875 -3.5625 Z M 8.21875 -3.5625 "/></g></g></g><g fill="#ffffff" fill-opacity="1"><g transform="translate(146.876205, 103.945771)"><g><path d="M 12.40625 -9.65625 L 15.015625 -6.328125 C 14.628906 -5.679688 14.054688 -5.082031 13.296875 -4.53125 C 12.546875 -3.988281 11.644531 -3.535156 10.59375 -3.171875 C 8.382812 -2.421875 6.503906 -2.453125 4.953125 -3.265625 C 3.398438 -4.078125 2.234375 -5.628906 1.453125 -7.921875 L -1.84375 -17.609375 L -4.953125 -16.546875 L -6.34375 -20.609375 L -3.234375 -21.671875 L -4.59375 -25.65625 L 0.25 -28.234375 L 1.890625 -23.421875 L 7.671875 -25.390625 L 9.0625 -21.328125 L 3.28125 -19.359375 L 6.453125 -10.046875 C 6.796875 -9.035156 7.253906 -8.367188 7.828125 -8.046875 C 8.398438 -7.722656 9.085938 -7.695312 9.890625 -7.96875 C 10.796875 -8.28125 11.507812 -8.796875 12.03125 -9.515625 Z M 12.40625 -9.65625 "/></g></g></g><g fill="#ffffff" fill-opacity="1"><g transform="translate(160.079231, 98.799426)"><g><path d="M 3.078125 -0.46875 L -1.421875 -30.328125 L 3.921875 -31.125 L 5.625 -19.796875 L 6.046875 -19.78125 C 6.597656 -20.925781 7.347656 -21.859375 8.296875 -22.578125 C 9.242188 -23.296875 10.441406 -23.765625 11.890625 -23.984375 C 16.597656 -24.691406 19.351562 -22.382812 20.15625 -17.0625 L 22.21875 -3.34375 L 16.859375 -2.546875 L 14.890625 -15.59375 C 14.671875 -17.039062 14.222656 -18.050781 13.546875 -18.625 C 12.867188 -19.195312 11.914062 -19.390625 10.6875 -19.203125 C 9.195312 -18.984375 8.085938 -18.304688 7.359375 -17.171875 C 6.640625 -16.035156 6.441406 -14.410156 6.765625 -12.296875 L 8.421875 -1.265625 Z M 3.078125 -0.46875 "/></g></g></g><g fill="#ffffff" fill-opacity="1"><g transform="translate(182.896897, 95.784287)"><g/></g></g><g fill="#ffffff" fill-opacity="1"><g transform="translate(190.232423, 95.070037)"><g><path d="M 11.046875 -11.09375 L 9.9375 -3.359375 L 23.421875 -1.421875 L 22.75 3.265625 L 3.6875 0.53125 L 7.75 -27.734375 L 26.5 -25.03125 L 25.828125 -20.34375 L 12.65625 -22.25 L 11.703125 -15.65625 L 23.21875 -14 L 22.5625 -9.4375 Z M 11.046875 -11.09375 "/></g></g></g><g fill="#ffffff" fill-opacity="1"><g transform="translate(211.551502, 97.768924)"><g><path d="M 2.921875 1.078125 L 10.40625 -19.125 L 15.265625 -17.3125 L 14.171875 -14.34375 L 14.53125 -14.109375 C 16.625 -15.941406 19.082031 -16.332031 21.90625 -15.28125 C 24.238281 -14.414062 25.71875 -13.144531 26.34375 -11.46875 C 26.96875 -9.800781 26.828125 -7.75 25.921875 -5.3125 L 21.0625 7.8125 L 15.984375 5.921875 L 20.625 -6.59375 C 21.113281 -7.925781 21.203125 -8.988281 20.890625 -9.78125 C 20.578125 -10.582031 19.828125 -11.203125 18.640625 -11.640625 C 17.191406 -12.179688 15.882812 -12.128906 14.71875 -11.484375 C 13.5625 -10.847656 12.609375 -9.519531 11.859375 -7.5 L 7.984375 2.953125 Z M 2.921875 1.078125 "/></g></g></g><g fill="#ffffff" fill-opacity="1"><g transform="translate(232.491896, 105.363264)"><g><path d="M 4.640625 13.671875 C 1.617188 11.785156 -0.328125 9.953125 -1.203125 8.171875 C -2.085938 6.398438 -2.035156 4.722656 -1.046875 3.140625 C -0.453125 2.179688 0.335938 1.585938 1.328125 1.359375 C 2.328125 1.128906 3.46875 1.265625 4.75 1.765625 L 4.96875 1.421875 C 4.582031 0.648438 4.394531 -0.046875 4.40625 -0.671875 C 4.425781 -1.304688 4.625 -1.925781 5 -2.53125 C 5.914062 -4 7.492188 -4.390625 9.734375 -3.703125 L 9.9375 -4.046875 C 9.300781 -5.222656 8.992188 -6.378906 9.015625 -7.515625 C 9.046875 -8.660156 9.429688 -9.828125 10.171875 -11.015625 C 10.929688 -12.222656 11.875 -13.117188 13 -13.703125 C 14.132812 -14.285156 15.398438 -14.492188 16.796875 -14.328125 C 18.203125 -14.160156 19.65625 -13.609375 21.15625 -12.671875 C 22.675781 -11.722656 23.722656 -10.703125 24.296875 -9.609375 C 25.378906 -10.078125 26.296875 -10.820312 27.046875 -11.84375 L 27.53125 -11.828125 L 30.3125 -8.953125 C 29.664062 -8.140625 28.953125 -7.566406 28.171875 -7.234375 C 27.398438 -6.898438 26.441406 -6.773438 25.296875 -6.859375 L 25.0625 -6.484375 C 25.53125 -4.929688 25.253906 -3.34375 24.234375 -1.71875 C 23.535156 -0.601562 22.625 0.222656 21.5 0.765625 C 20.382812 1.316406 19.125 1.515625 17.71875 1.359375 C 16.320312 1.203125 14.882812 0.664062 13.40625 -0.25 L 12.703125 -0.703125 C 12.273438 -1.003906 11.972656 -1.207031 11.796875 -1.3125 C 11.378906 -1.570312 10.976562 -1.660156 10.59375 -1.578125 C 10.21875 -1.503906 9.921875 -1.289062 9.703125 -0.9375 C 9.460938 -0.550781 9.425781 -0.15625 9.59375 0.25 C 9.769531 0.65625 10.15625 1.054688 10.75 1.453125 L 14.734375 4.15625 C 18.710938 6.800781 19.648438 9.804688 17.546875 13.171875 C 16.816406 14.347656 15.859375 15.210938 14.671875 15.765625 C 13.492188 16.316406 12.0625 16.4375 10.375 16.125 C 8.695312 15.820312 6.785156 15.003906 4.640625 13.671875 Z M 15.40625 -3.453125 C 16.289062 -2.898438 17.140625 -2.726562 17.953125 -2.9375 C 18.773438 -3.15625 19.488281 -3.742188 20.09375 -4.703125 C 20.6875 -5.671875 20.894531 -6.5625 20.71875 -7.375 C 20.550781 -8.195312 20.023438 -8.882812 19.140625 -9.4375 C 18.242188 -10 17.390625 -10.175781 16.578125 -9.96875 C 15.773438 -9.757812 15.078125 -9.171875 14.484375 -8.203125 C 13.867188 -7.234375 13.644531 -6.335938 13.8125 -5.515625 C 13.976562 -4.703125 14.507812 -4.015625 15.40625 -3.453125 Z M 6.71875 10.34375 C 8.289062 11.320312 9.566406 11.8125 10.546875 11.8125 C 11.535156 11.820312 12.25 11.472656 12.6875 10.765625 C 13.050781 10.191406 13.132812 9.65625 12.9375 9.15625 C 12.738281 8.65625 12.25 8.140625 11.46875 7.609375 L 7.96875 5.203125 C 7.84375 5.128906 7.726562 5.050781 7.625 4.96875 C 7.53125 4.882812 7.4375 4.8125 7.34375 4.75 C 6.570312 4.269531 5.878906 4.070312 5.265625 4.15625 C 4.648438 4.238281 4.160156 4.570312 3.796875 5.15625 C 3.304688 5.9375 3.300781 6.765625 3.78125 7.640625 C 4.269531 8.523438 5.25 9.425781 6.71875 10.34375 Z M 6.71875 10.34375 "/></g></g></g><g fill="#ffffff" fill-opacity="1"><g transform="translate(249.534408, 116.27626)"><g><path d="M 20.015625 -14.65625 C 19.273438 -15.28125 18.863281 -16.019531 18.78125 -16.875 C 18.695312 -17.726562 18.957031 -18.515625 19.5625 -19.234375 C 20.15625 -19.929688 20.875 -20.304688 21.71875 -20.359375 C 22.570312 -20.410156 23.367188 -20.125 24.109375 -19.5 C 24.609375 -19.070312 24.960938 -18.59375 25.171875 -18.0625 C 25.390625 -17.53125 25.445312 -16.988281 25.34375 -16.4375 C 25.25 -15.894531 25.007812 -15.394531 24.625 -14.9375 C 24.226562 -14.46875 23.765625 -14.140625 23.234375 -13.953125 C 22.710938 -13.765625 22.171875 -13.726562 21.609375 -13.84375 C 21.046875 -13.957031 20.515625 -14.226562 20.015625 -14.65625 Z M 2.375 2.015625 L 16.296875 -14.421875 L 20.421875 -10.9375 L 6.5 5.5 Z M 2.375 2.015625 "/></g></g></g><g fill="#ffffff" fill-opacity="1"><g transform="translate(257.120586, 121.761179)"><g><path d="M 2.03125 2.359375 L 18.359375 -11.703125 L 21.75 -7.78125 L 19.34375 -5.71875 L 19.53125 -5.328125 C 22.257812 -5.910156 24.601562 -5.0625 26.5625 -2.78125 C 28.1875 -0.894531 28.867188 0.925781 28.609375 2.6875 C 28.347656 4.457031 27.238281 6.1875 25.28125 7.875 L 14.671875 17.015625 L 11.125 12.921875 L 21.234375 4.21875 C 22.316406 3.28125 22.910156 2.382812 23.015625 1.53125 C 23.117188 0.6875 22.757812 -0.207031 21.9375 -1.15625 C 20.925781 -2.332031 19.757812 -2.921875 18.4375 -2.921875 C 17.113281 -2.921875 15.640625 -2.222656 14.015625 -0.828125 L 5.5625 6.453125 Z M 2.03125 2.359375 "/></g></g></g><g fill="#ffffff" fill-opacity="1"><g transform="translate(271.79014, 138.453081)"><g><path d="M 18.640625 14.046875 L 11.953125 1.90625 C 10.378906 2.945312 9.441406 4.070312 9.140625 5.28125 C 8.847656 6.488281 9.082031 7.785156 9.84375 9.171875 C 10.4375 10.253906 11.117188 11.019531 11.890625 11.46875 C 12.660156 11.914062 13.570312 12.125 14.625 12.09375 L 14.828125 12.4375 L 14.546875 16.703125 C 12.878906 16.816406 11.289062 16.476562 9.78125 15.6875 C 8.28125 14.894531 6.957031 13.460938 5.8125 11.390625 C 4.738281 9.441406 4.175781 7.550781 4.125 5.71875 C 4.082031 3.894531 4.582031 2.191406 5.625 0.609375 C 6.675781 -0.960938 8.253906 -2.332031 10.359375 -3.5 C 12.503906 -4.675781 14.53125 -5.265625 16.4375 -5.265625 C 18.351562 -5.273438 20.054688 -4.785156 21.546875 -3.796875 C 23.035156 -2.816406 24.253906 -1.46875 25.203125 0.25 C 26.671875 2.914062 27.085938 5.347656 26.453125 7.546875 C 25.828125 9.742188 24.144531 11.597656 21.40625 13.109375 C 20.414062 13.660156 19.628906 14.050781 19.046875 14.28125 Z M 19.453125 8.28125 C 20.878906 7.4375 21.742188 6.523438 22.046875 5.546875 C 22.359375 4.566406 22.1875 3.476562 21.53125 2.28125 C 20.207031 -0.113281 18.054688 -0.765625 15.078125 0.328125 Z M 19.453125 8.28125 "/></g></g></g><g fill="#ffffff" fill-opacity="1"><g transform="translate(60.643074, 213.19511)"><g><path d="M 25.3125 12.9375 L 35.125 8.546875 L 37.421875 13.6875 L 11.359375 25.359375 L 9.0625 20.21875 L 20.9375 14.890625 L 15.703125 3.21875 L 3.828125 8.546875 L 1.515625 3.390625 L 27.578125 -8.28125 L 29.890625 -3.125 L 20.078125 1.265625 Z M 25.3125 12.9375 "/></g></g></g><g fill="#ffffff" fill-opacity="1"><g transform="translate(75.784179, 244.81792)"><g><path d="M 20.546875 11.078125 L 12.109375 0.078125 C 10.710938 1.335938 9.957031 2.585938 9.84375 3.828125 C 9.726562 5.078125 10.148438 6.332031 11.109375 7.59375 C 11.859375 8.5625 12.644531 9.210938 13.46875 9.546875 C 14.300781 9.878906 15.238281 9.941406 16.28125 9.734375 L 16.53125 10.0625 L 16.890625 14.3125 C 15.265625 14.675781 13.644531 14.582031 12.03125 14.03125 C 10.425781 13.476562 8.898438 12.265625 7.453125 10.390625 C 6.097656 8.617188 5.265625 6.832031 4.953125 5.03125 C 4.640625 3.226562 4.878906 1.46875 5.671875 -0.25 C 6.460938 -1.96875 7.8125 -3.5625 9.71875 -5.03125 C 11.664062 -6.519531 13.582031 -7.40625 15.46875 -7.6875 C 17.351562 -7.976562 19.101562 -7.75 20.71875 -7 C 22.34375 -6.257812 23.753906 -5.109375 24.953125 -3.546875 C 26.804688 -1.140625 27.582031 1.195312 27.28125 3.46875 C 26.988281 5.738281 25.601562 7.828125 23.125 9.734375 C 22.226562 10.421875 21.507812 10.925781 20.96875 11.25 Z M 20.484375 5.25 C 21.753906 4.207031 22.46875 3.175781 22.625 2.15625 C 22.789062 1.144531 22.457031 0.0976562 21.625 -0.984375 C 19.957031 -3.160156 17.734375 -3.484375 14.953125 -1.953125 Z M 20.484375 5.25 "/></g></g></g><g fill="#ffffff" fill-opacity="1"><g transform="translate(92.139694, 265.564786)"><g><path d="M 6.0625 5.84375 C 5.019531 4.9375 4.28125 3.957031 3.84375 2.90625 C 3.414062 1.851562 3.316406 0.773438 3.546875 -0.328125 C 3.785156 -1.429688 4.363281 -2.503906 5.28125 -3.546875 C 6.113281 -4.492188 7.019531 -5.113281 8 -5.40625 C 8.988281 -5.695312 10.097656 -5.675781 11.328125 -5.34375 C 12.554688 -5.007812 13.960938 -4.335938 15.546875 -3.328125 C 16.648438 -2.640625 17.535156 -2.164062 18.203125 -1.90625 C 18.867188 -1.65625 19.394531 -1.570312 19.78125 -1.65625 C 20.164062 -1.738281 20.515625 -1.960938 20.828125 -2.328125 C 21.285156 -2.835938 21.453125 -3.382812 21.328125 -3.96875 C 21.210938 -4.5625 20.726562 -5.234375 19.875 -5.984375 C 18.976562 -6.765625 17.945312 -7.3125 16.78125 -7.625 C 15.625 -7.9375 14.453125 -8.023438 13.265625 -7.890625 L 12.96875 -8.15625 L 13.515625 -12.21875 C 15.140625 -12.40625 16.769531 -12.234375 18.40625 -11.703125 C 20.039062 -11.179688 21.5625 -10.304688 22.96875 -9.078125 C 25.101562 -7.203125 26.253906 -5.390625 26.421875 -3.640625 C 26.585938 -1.898438 25.9375 -0.191406 24.46875 1.484375 L 18.296875 8.53125 C 17.671875 9.25 17.675781 9.894531 18.3125 10.46875 C 18.5625 10.675781 18.835938 10.84375 19.140625 10.96875 L 19.28125 11.203125 L 17.109375 14.28125 C 16.753906 14.238281 16.332031 14.085938 15.84375 13.828125 C 15.351562 13.578125 14.867188 13.242188 14.390625 12.828125 C 13.421875 11.972656 12.828125 11.117188 12.609375 10.265625 C 12.398438 9.421875 12.523438 8.5 12.984375 7.5 L 12.703125 7.203125 C 10.429688 8.191406 8.21875 7.738281 6.0625 5.84375 Z M 10.015625 3.9375 C 10.953125 4.757812 11.976562 5.097656 13.09375 4.953125 C 14.207031 4.816406 15.253906 4.179688 16.234375 3.046875 L 17.6875 1.40625 L 17.46875 1.109375 C 17.039062 1.085938 16.570312 0.96875 16.0625 0.75 C 15.550781 0.539062 14.875 0.175781 14.03125 -0.34375 C 13.007812 -0.96875 12.148438 -1.269531 11.453125 -1.25 C 10.753906 -1.238281 10.117188 -0.898438 9.546875 -0.234375 C 8.929688 0.453125 8.671875 1.15625 8.765625 1.875 C 8.859375 2.601562 9.273438 3.289062 10.015625 3.9375 Z M 10.015625 3.9375 "/></g></g></g><g fill="#ffffff" fill-opacity="1"><g transform="translate(111.277085, 281.586197)"><g><path d="M 7.328125 5.171875 C 5.679688 4.117188 4.707031 2.875 4.40625 1.4375 C 4.113281 0.0078125 4.546875 -1.601562 5.703125 -3.40625 L 18.78125 -23.84375 L 23.328125 -20.921875 L 10.359375 -0.671875 C 9.660156 0.429688 9.773438 1.28125 10.703125 1.875 C 10.960938 2.039062 11.269531 2.175781 11.625 2.28125 L 11.8125 2.5 L 9.96875 6.28125 C 9.632812 6.25 9.234375 6.132812 8.765625 5.9375 C 8.304688 5.75 7.828125 5.492188 7.328125 5.171875 Z M 7.328125 5.171875 "/></g></g></g><g fill="#ffffff" fill-opacity="1"><g transform="translate(123.28028, 289.29451)"><g><path d="M 15.625 1.765625 L 15.15625 5.984375 C 14.425781 6.171875 13.601562 6.191406 12.6875 6.046875 C 11.769531 5.910156 10.8125 5.601562 9.8125 5.125 C 7.707031 4.125 6.378906 2.785156 5.828125 1.109375 C 5.273438 -0.554688 5.519531 -2.476562 6.5625 -4.65625 L 10.96875 -13.890625 L 8.015625 -15.296875 L 9.875 -19.171875 L 12.828125 -17.765625 L 14.640625 -21.5625 L 19.921875 -20.015625 L 17.734375 -15.421875 L 23.234375 -12.796875 L 21.375 -8.921875 L 15.875 -11.546875 L 11.640625 -2.671875 C 11.179688 -1.710938 11.039062 -0.914062 11.21875 -0.28125 C 11.40625 0.34375 11.878906 0.835938 12.640625 1.203125 C 13.503906 1.617188 14.378906 1.75 15.265625 1.59375 Z M 15.625 1.765625 "/></g></g></g><g fill="#ffffff" fill-opacity="1"><g transform="translate(140.814154, 297.817405)"><g><path d="M 3 0.8125 L 10.96875 -28.328125 L 16.1875 -26.890625 L 13.15625 -15.828125 L 13.53125 -15.640625 C 14.488281 -16.460938 15.546875 -17.015625 16.703125 -17.296875 C 17.859375 -17.578125 19.144531 -17.519531 20.5625 -17.125 C 25.15625 -15.875 26.742188 -12.65625 25.328125 -7.46875 L 21.671875 5.921875 L 16.4375 4.5 L 19.90625 -8.21875 C 20.300781 -9.632812 20.300781 -10.742188 19.90625 -11.546875 C 19.519531 -12.347656 18.734375 -12.910156 17.546875 -13.234375 C 16.085938 -13.640625 14.796875 -13.46875 13.671875 -12.71875 C 12.554688 -11.96875 11.71875 -10.566406 11.15625 -8.515625 L 8.21875 2.25 Z M 3 0.8125 "/></g></g></g><g fill="#ffffff" fill-opacity="1"><g transform="translate(167.469232, 304.328503)"><g/></g></g><g fill="#ffffff" fill-opacity="1"><g transform="translate(179.148332, 306.210948)"><g><path d="M 3.71875 -0.125 L 2.71875 -28.671875 L 14.15625 -29.078125 C 17.113281 -29.179688 19.367188 -28.578125 20.921875 -27.265625 C 22.472656 -25.953125 23.289062 -24.097656 23.375 -21.703125 C 23.4375 -19.972656 23.046875 -18.539062 22.203125 -17.40625 C 21.367188 -16.269531 20.09375 -15.375 18.375 -14.71875 L 18.390625 -14.3125 C 19.296875 -13.957031 20.035156 -13.40625 20.609375 -12.65625 C 21.191406 -11.914062 21.757812 -10.796875 22.3125 -9.296875 L 25.453125 -0.890625 L 19.65625 -0.6875 L 16.5625 -9.125 C 16.25 -9.976562 15.90625 -10.632812 15.53125 -11.09375 C 15.15625 -11.550781 14.6875 -11.878906 14.125 -12.078125 C 13.5625 -12.273438 12.84375 -12.359375 11.96875 -12.328125 L 8.9375 -12.21875 L 9.359375 -0.328125 Z M 13.90625 -16.859375 C 16.632812 -16.953125 17.957031 -18.273438 17.875 -20.828125 C 17.78125 -23.410156 16.367188 -24.65625 13.640625 -24.5625 L 8.515625 -24.390625 L 8.78125 -16.6875 Z M 13.90625 -16.859375 "/></g></g></g><g fill="#ffffff" fill-opacity="1"><g transform="translate(209.064072, 304.643671)"><g><path d="M 18.296875 -14.484375 L 4.859375 -11.078125 C 5.472656 -9.304688 6.328125 -8.117188 7.421875 -7.515625 C 8.515625 -6.921875 9.828125 -6.816406 11.359375 -7.203125 C 12.546875 -7.503906 13.457031 -7.96875 14.09375 -8.59375 C 14.726562 -9.226562 15.15625 -10.0625 15.375 -11.09375 L 15.78125 -11.1875 L 19.84375 -9.84375 C 19.53125 -8.207031 18.796875 -6.757812 17.640625 -5.5 C 16.492188 -4.25 14.773438 -3.332031 12.484375 -2.75 C 10.316406 -2.195312 8.347656 -2.128906 6.578125 -2.546875 C 4.804688 -2.972656 3.285156 -3.890625 2.015625 -5.296875 C 0.742188 -6.703125 -0.179688 -8.570312 -0.765625 -10.90625 C -1.367188 -13.28125 -1.425781 -15.394531 -0.9375 -17.25 C -0.457031 -19.101562 0.441406 -20.625 1.765625 -21.8125 C 3.085938 -23 4.707031 -23.835938 6.625 -24.328125 C 9.570312 -25.078125 12.023438 -24.863281 13.984375 -23.6875 C 15.953125 -22.519531 17.320312 -20.425781 18.09375 -17.40625 C 18.363281 -16.300781 18.539062 -15.4375 18.625 -14.8125 Z M 12.921875 -16.734375 C 12.460938 -18.328125 11.800781 -19.394531 10.9375 -19.9375 C 10.070312 -20.476562 8.976562 -20.582031 7.65625 -20.25 C 5 -19.570312 3.820312 -17.65625 4.125 -14.5 Z M 12.921875 -16.734375 "/></g></g></g><g fill="#ffffff" fill-opacity="1"><g transform="translate(234.548734, 297.820841)"><g><path d="M 11.515625 -5.015625 C 9.640625 -4.128906 7.789062 -3.734375 5.96875 -3.828125 C 4.144531 -3.921875 2.46875 -4.53125 0.9375 -5.65625 C -0.582031 -6.789062 -1.847656 -8.425781 -2.859375 -10.5625 C -3.867188 -12.695312 -4.332031 -14.71875 -4.25 -16.625 C -4.164062 -18.53125 -3.585938 -20.210938 -2.515625 -21.671875 C -1.453125 -23.128906 0.00390625 -24.300781 1.859375 -25.1875 C 5.960938 -27.132812 9.289062 -26.890625 11.84375 -24.453125 L 9.640625 -20.453125 L 9.28125 -20.28125 C 8.445312 -21.007812 7.601562 -21.445312 6.75 -21.59375 C 5.894531 -21.738281 4.921875 -21.550781 3.828125 -21.03125 C 2.421875 -20.363281 1.550781 -19.351562 1.21875 -18 C 0.894531 -16.65625 1.210938 -14.972656 2.171875 -12.953125 C 3.117188 -10.941406 4.222656 -9.632812 5.484375 -9.03125 C 6.742188 -8.425781 8.097656 -8.46875 9.546875 -9.15625 C 10.609375 -9.65625 11.375 -10.363281 11.84375 -11.28125 C 12.3125 -12.207031 12.445312 -13.285156 12.25 -14.515625 L 12.625 -14.703125 L 16.984375 -14.453125 C 17.265625 -12.566406 16.984375 -10.789062 16.140625 -9.125 C 15.304688 -7.457031 13.765625 -6.085938 11.515625 -5.015625 Z M 11.515625 -5.015625 "/></g></g></g><g fill="#ffffff" fill-opacity="1"><g transform="translate(257.335841, 286.831031)"><g><path d="M 10.265625 -7.1875 C 8.578125 -5.925781 6.832031 -5.160156 5.03125 -4.890625 C 3.238281 -4.628906 1.488281 -4.898438 -0.21875 -5.703125 C -1.925781 -6.515625 -3.492188 -7.867188 -4.921875 -9.765625 C -6.335938 -11.660156 -7.195312 -13.546875 -7.5 -15.421875 C -7.8125 -17.296875 -7.585938 -19.054688 -6.828125 -20.703125 C -6.078125 -22.359375 -4.859375 -23.816406 -3.171875 -25.078125 C -1.484375 -26.347656 0.253906 -27.113281 2.046875 -27.375 C 3.847656 -27.644531 5.609375 -27.375 7.328125 -26.5625 C 9.046875 -25.75 10.613281 -24.394531 12.03125 -22.5 C 13.457031 -20.601562 14.316406 -18.71875 14.609375 -16.84375 C 14.910156 -14.976562 14.679688 -13.21875 13.921875 -11.5625 C 13.171875 -9.914062 11.953125 -8.457031 10.265625 -7.1875 Z M 7.5 -10.859375 C 10.175781 -12.867188 10.195312 -15.628906 7.5625 -19.140625 C 6.195312 -20.960938 4.851562 -22.035156 3.53125 -22.359375 C 2.207031 -22.691406 0.894531 -22.367188 -0.40625 -21.390625 C -3.082031 -19.378906 -3.101562 -16.617188 -0.46875 -13.109375 C 2.164062 -9.597656 4.820312 -8.847656 7.5 -10.859375 Z M 7.5 -10.859375 "/></g></g></g><g fill="#ffffff" fill-opacity="1"><g transform="translate(279.144938, 269.699881)"><g><path d="M 2.109375 -2.28125 L -13.6875 -16.9375 L -10.109375 -20.78125 L -7.75 -18.609375 L -7.421875 -18.84375 C -7.941406 -20.039062 -8.117188 -21.140625 -7.953125 -22.140625 C -7.785156 -23.140625 -7.296875 -24.082031 -6.484375 -24.96875 C -5.640625 -25.875 -4.847656 -26.421875 -4.109375 -26.609375 L -1.328125 -22.75 L -1.546875 -22.40625 C -1.890625 -22.238281 -2.191406 -22.0625 -2.453125 -21.875 C -2.722656 -21.6875 -3.019531 -21.421875 -3.34375 -21.078125 C -4.363281 -19.972656 -4.753906 -18.765625 -4.515625 -17.453125 C -4.285156 -16.140625 -3.3125 -14.6875 -1.59375 -13.09375 L 5.796875 -6.234375 Z M 2.109375 -2.28125 "/></g></g></g><g fill="#ffffff" fill-opacity="1"><g transform="translate(292.661027, 255.362592)"><g><path d="M 6.046875 -8.765625 C 5.140625 -7.328125 3.984375 -6.273438 2.578125 -5.609375 C 1.179688 -4.941406 -0.414062 -4.75 -2.21875 -5.03125 C -4.03125 -5.3125 -5.96875 -6.109375 -8.03125 -7.421875 C -10.113281 -8.734375 -11.65625 -10.15625 -12.65625 -11.6875 C -13.664062 -13.226562 -14.15625 -14.789062 -14.125 -16.375 C -14.101562 -17.957031 -13.617188 -19.5 -12.671875 -21 C -11.953125 -22.132812 -11.132812 -22.988281 -10.21875 -23.5625 C -9.300781 -24.132812 -8.25 -24.445312 -7.0625 -24.5 L -6.921875 -24.90625 L -16.203125 -30.8125 L -13.296875 -35.375 L 12.1875 -19.171875 L 9.28125 -14.609375 L 6.921875 -16.109375 L 6.640625 -15.796875 C 7.171875 -14.742188 7.40625 -13.617188 7.34375 -12.421875 C 7.28125 -11.234375 6.847656 -10.015625 6.046875 -8.765625 Z M 3.125 -12.71875 C 3.9375 -14 4.117188 -15.300781 3.671875 -16.625 C 3.234375 -17.957031 2.082031 -19.222656 0.21875 -20.421875 C -1.644531 -21.597656 -3.273438 -22.101562 -4.671875 -21.9375 C -6.078125 -21.78125 -7.1875 -21.0625 -8 -19.78125 C -8.851562 -18.4375 -9.054688 -17.125 -8.609375 -15.84375 C -8.171875 -14.570312 -6.988281 -13.328125 -5.0625 -12.109375 C -3.144531 -10.890625 -1.515625 -10.347656 -0.171875 -10.484375 C 1.171875 -10.628906 2.269531 -11.375 3.125 -12.71875 Z M 3.125 -12.71875 "/></g></g></g><g fill="#ffffff" fill-opacity="1"><g transform="translate(307.600038, 230.773806)"><g><path d="M 4.03125 -9.25 C 3.5 -7.882812 2.851562 -6.691406 2.09375 -5.671875 C 1.332031 -4.660156 0.515625 -3.859375 -0.359375 -3.265625 C -1.242188 -2.679688 -2.125 -2.335938 -3 -2.234375 L -4.9375 -6.203125 L -4.796875 -6.578125 C -3.628906 -6.898438 -2.644531 -7.425781 -1.84375 -8.15625 C -1.050781 -8.894531 -0.445312 -9.800781 -0.03125 -10.875 C 0.351562 -11.851562 0.46875 -12.65625 0.3125 -13.28125 C 0.15625 -13.914062 -0.25 -14.363281 -0.90625 -14.625 C -1.414062 -14.820312 -1.914062 -14.8125 -2.40625 -14.59375 C -2.894531 -14.375 -3.390625 -13.898438 -3.890625 -13.171875 L -5.546875 -10.765625 C -6.796875 -8.960938 -8.085938 -7.789062 -9.421875 -7.25 C -10.753906 -6.71875 -12.175781 -6.742188 -13.6875 -7.328125 C -14.9375 -7.816406 -15.894531 -8.554688 -16.5625 -9.546875 C -17.238281 -10.546875 -17.59375 -11.71875 -17.625 -13.0625 C -17.65625 -14.414062 -17.375 -15.863281 -16.78125 -17.40625 C -16.070312 -19.207031 -15.222656 -20.597656 -14.234375 -21.578125 C -13.253906 -22.566406 -12.203125 -23.234375 -11.078125 -23.578125 L -9.203125 -19.734375 L -9.34375 -19.375 C -10.207031 -19.0625 -10.921875 -18.609375 -11.484375 -18.015625 C -12.046875 -17.429688 -12.492188 -16.710938 -12.828125 -15.859375 C -13.597656 -13.867188 -13.359375 -12.632812 -12.109375 -12.15625 C -11.585938 -11.945312 -11.09375 -11.960938 -10.625 -12.203125 C -10.164062 -12.453125 -9.648438 -13 -9.078125 -13.84375 L -7.5625 -16.109375 C -6.332031 -17.972656 -5.046875 -19.1875 -3.703125 -19.75 C -2.367188 -20.320312 -0.894531 -20.289062 0.71875 -19.65625 C 1.988281 -19.164062 2.984375 -18.414062 3.703125 -17.40625 C 4.429688 -16.394531 4.828125 -15.191406 4.890625 -13.796875 C 4.960938 -12.398438 4.675781 -10.882812 4.03125 -9.25 Z M 4.03125 -9.25 "/></g></g></g></svg>